<svg width="190" height="22" viewBox="0 0 190 22" fill="none" xmlns="http://www.w3.org/2000/svg">
<path d="M7.904 17H0.152V0.92H7.904C13.064 0.92 16.328 3.92 16.328 8.96C16.328 14 13.064 17 7.904 17ZM7.904 4.16H3.752V13.76H7.904C11.168 13.76 12.488 12.824 12.488 8.96C12.488 5.096 11.168 4.16 7.904 4.16ZM24.2737 17.24C20.2657 17.24 17.5297 15.272 17.5297 11C17.5297 7.16 20.2417 4.736 24.2017 4.736C28.1377 4.736 30.7537 6.8 30.7537 10.568C30.7537 11 30.7057 11.312 30.6577 11.72H20.8657C20.9617 13.568 21.8257 14.36 24.1537 14.36C26.2897 14.36 27.0337 13.808 27.0337 12.776V12.536H30.6337V12.8C30.6337 15.416 28.0897 17.24 24.2737 17.24ZM24.1297 7.544C21.9937 7.544 21.0817 8.264 20.9137 9.824H27.2977C27.2017 8.24 26.2417 7.544 24.1297 7.544ZM35.8803 17H32.2803V4.976H35.6163V8.624H35.8083C36.0963 6.608 37.2963 4.736 40.3203 4.736C43.1043 4.736 44.5203 6.44 44.7843 8.672H45.0003C45.2883 6.632 46.5123 4.736 49.6083 4.736C52.7043 4.736 54.2163 6.776 54.2163 9.512V17H50.6163V10.712C50.6163 8.72 49.9203 7.976 47.8563 7.976C45.6723 7.976 45.0483 8.84 45.0483 10.928V17H41.4483V10.712C41.4483 8.72 40.7523 7.976 38.6883 7.976C36.5043 7.976 35.8803 8.84 35.8803 10.928V17ZM62.4539 17.24C58.3499 17.24 55.5899 14.792 55.5899 11C55.5899 7.16 58.3499 4.736 62.4539 4.736C66.5579 4.736 69.3179 7.16 69.3179 11C69.3179 14.792 66.5579 17.24 62.4539 17.24ZM62.4539 14.048C64.8779 14.048 65.7419 13.112 65.7419 11C65.7419 8.888 64.8779 7.904 62.4539 7.904C60.0059 7.904 59.1659 8.888 59.1659 11C59.1659 13.112 60.0059 14.048 62.4539 14.048ZM82.7233 17.24C77.4193 17.24 74.1313 13.976 74.1313 8.96C74.1313 3.944 77.4193 0.68 82.7233 0.68C87.7153 0.68 90.9313 3.176 90.9313 7.256V7.616H86.9233V7.256C86.9233 5.144 85.7233 4.136 82.7953 4.136C79.2673 4.136 77.9473 5.384 77.9473 8.96C77.9473 12.536 79.2673 13.784 82.7953 13.784C85.7233 13.784 86.9233 12.776 86.9233 10.664V10.304H90.9313V10.664C90.9313 14.744 87.7393 17.24 82.7233 17.24ZM98.8993 17.24C94.7953 17.24 92.0353 14.792 92.0353 11C92.0353 7.16 94.7953 4.736 98.8993 4.736C103.003 4.736 105.763 7.16 105.763 11C105.763 14.792 103.003 17.24 98.8993 17.24ZM98.8993 14.048C101.323 14.048 102.187 13.112 102.187 11C102.187 8.888 101.323 7.904 98.8993 7.904C96.4513 7.904 95.6113 8.888 95.6113 11C95.6113 13.112 96.4513 14.048 98.8993 14.048ZM110.833 17H107.233V4.976H110.569V8.624H110.761C111.049 6.608 112.249 4.736 115.273 4.736C118.057 4.736 119.473 6.44 119.737 8.672H119.953C120.241 6.632 121.465 4.736 124.561 4.736C127.657 4.736 129.169 6.776 129.169 9.512V17H125.569V10.712C125.569 8.72 124.873 7.976 122.809 7.976C120.625 7.976 120.001 8.84 120.001 10.928V17H116.401V10.712C116.401 8.72 115.705 7.976 113.641 7.976C111.457 7.976 110.833 8.84 110.833 10.928V17ZM134.599 21.08H130.999V4.976H134.335V8.264H134.575C135.007 5.96 136.543 4.736 139.375 4.736C143.071 4.736 145.135 7.184 145.135 11C145.135 14.816 143.119 17.24 139.495 17.24C136.711 17.24 135.175 15.872 134.767 13.76H134.599V21.08ZM134.599 11.168C134.599 13.232 135.847 13.952 138.103 13.952C140.407 13.952 141.487 13.184 141.487 11C141.487 8.792 140.407 8.048 138.127 8.048C135.799 8.048 134.599 8.84 134.599 10.976V11.168ZM150.328 17.24C147.736 17.24 146.176 16.04 146.176 14.024C146.176 12.248 147.496 11.144 150.064 10.88L155.224 10.352V9.896C155.224 8.336 154.528 7.904 152.608 7.904C150.784 7.904 150.04 8.384 150.04 9.752V9.848H146.416V9.776C146.416 6.8 148.912 4.736 152.872 4.736C156.88 4.736 158.776 6.8 158.776 9.944V17H155.416V14.24H155.224C154.672 16.112 152.992 17.24 150.328 17.24ZM149.8 13.784C149.8 14.432 150.304 14.696 151.36 14.696C153.808 14.696 155.128 14.12 155.224 12.416L151.048 12.896C150.184 12.968 149.8 13.208 149.8 13.784ZM164.201 17H160.601V4.976H163.937V8.672H164.153C164.465 6.656 165.905 4.736 169.049 4.736C172.337 4.736 173.897 6.848 173.897 9.512V17H170.297V10.712C170.297 8.792 169.505 7.976 167.297 7.976C165.017 7.976 164.201 8.888 164.201 10.928V17ZM178.022 21.08H176.054V17.816H179.006C179.894 17.816 180.278 17.576 180.518 17.048L174.638 4.976H178.718L181.262 10.472L182.27 13.304H182.51L183.47 10.448L185.75 4.976H189.758L183.806 17.864C182.654 20.384 181.046 21.08 178.022 21.08Z" fill="#FFBB29"/>
</svg>
